<svg width="24" height="24" viewBox="0 0 24 24" fill="none" xmlns="http://www.w3.org/2000/svg">
<path d="M20 0C22.2091 2.57702e-07 24 1.79086 24 4V20C24 22.2091 22.2091 24 20 24H4C1.79086 24 6.44266e-08 22.2091 0 20V4C2.57706e-07 1.79086 1.79086 6.44256e-08 4 0H20ZM5 9C4.44772 9 4 9.44772 4 10V20C4 20.5523 4.44772 21 5 21C5.55228 21 6 20.5523 6 20V10C6 9.44772 5.55228 9 5 9ZM12 3C11.4477 3 11 3.44772 11 4V20C11 20.5523 11.4477 21 12 21C12.5523 21 13 20.5523 13 20V4C13 3.44772 12.5523 3 12 3ZM19 15C18.4477 15 18 15.4477 18 16V20C18 20.5523 18.4477 21 19 21C19.5523 21 20 20.5523 20 20V16C20 15.4477 19.5523 15 19 15Z" fill="#C6C4C4"/>
</svg>
