<svg width="26" height="25" viewBox="0 0 26 25" fill="none" xmlns="http://www.w3.org/2000/svg">
<path d="M1 9.18897V22.8C1 23.4627 1.53726 24 2.2 24H7.8C8.46274 24 9 23.4627 9 22.8V18.3429C9 17.6801 9.53726 17.1429 10.2 17.1429H15.8C16.4627 17.1429 17 17.6801 17 18.3429V22.8C17 23.4627 17.5373 24 18.2 24H23.8C24.4627 24 25 23.4627 25 22.8V9.18897C25 8.80143 24.8128 8.43774 24.4975 8.21249L13.6975 0.498204C13.2802 0.200178 12.7198 0.200178 12.3025 0.498204L1.50251 8.21249C1.18716 8.43774 1 8.80143 1 9.18897Z" fill="#C6C4C4" stroke="#C6C4C4" stroke-width="0.1"/>
</svg>
