<svg width="25" height="25" viewBox="0 0 25 25" fill="none" xmlns="http://www.w3.org/2000/svg">
<path d="M21 4.27246C23.2091 4.27246 24.9999 6.06343 25 8.27246V21C25 23.2091 23.2091 25 21 25H5C2.79087 25 1.00001 23.2091 1 21V8.27246C1.00013 6.06343 2.79094 4.27246 5 4.27246H21ZM5 16.2725C4.4478 16.2725 4.00013 16.7203 4 17.2725V17.4541C4 18.0064 4.44772 18.4541 5 18.4541H21C21.5523 18.4541 22 18.0064 22 17.4541V17.2725C21.9999 16.7203 21.5522 16.2725 21 16.2725H5Z" fill="#C6C4C4"/>
<path d="M4.68752 1.00001C2.50442 0.999916 1 7.5 1 7.5C1.5 5.5 4.50002 4.24544 4.50002 4.24544H13C13 4.24544 12.5 0.999896 9.50002 1L4.68752 1.00001Z" fill="#C6C4C4" fill-opacity="0.3" stroke="#E5E5E5" stroke-width="0.1"/>
</svg>
