<svg width="25" height="25" viewBox="0 0 25 25" fill="none" xmlns="http://www.w3.org/2000/svg">
<path d="M21 14C21.5523 14 22.0047 14.4486 21.9546 14.9986C21.7884 16.8218 21.1691 18.5803 20.1462 20.1113C18.9375 21.9202 17.2195 23.3301 15.2095 24.1627C13.1995 24.9952 10.9878 25.2131 8.85401 24.7886C6.72022 24.3642 4.7602 23.3166 3.22183 21.7782C1.68345 20.2398 0.635801 18.2798 0.211363 16.146C-0.213076 14.0122 0.00476074 11.8005 0.837324 9.79048C1.66989 7.7805 3.07979 6.06253 4.88873 4.85383C6.41966 3.8309 8.17821 3.21161 10.0014 3.04542C10.5514 2.99528 11 3.44772 11 4L11 13C11 13.5523 11.4477 14 12 14L21 14Z" fill="white"/>
<path d="M24.0147 11.9853C24.567 11.9853 25.0191 11.5367 24.9731 10.9863C24.7379 8.1696 23.5138 5.51378 21.5 3.5C19.4862 1.48622 16.8304 0.26209 14.0137 0.0269015C13.4633 -0.0190524 13.0147 0.432997 13.0147 0.985282V10.9853C13.0147 11.5376 13.4624 11.9853 14.0147 11.9853L24.0147 11.9853Z" fill="#99C9F9"/>
</svg>
