<svg width="25" height="25" viewBox="0 0 25 25" fill="none" xmlns="http://www.w3.org/2000/svg">
<path d="M4 11C3.44771 11 2.99528 10.5514 3.04542 10.0014C3.21161 8.17821 3.8309 6.41966 4.85383 4.88873C6.06253 3.07979 7.78049 1.66989 9.79048 0.837326C11.8005 0.00476265 14.0122 -0.213076 16.146 0.211361C18.2798 0.635798 20.2398 1.68345 21.7782 3.22182C23.3166 4.7602 24.3642 6.72021 24.7886 8.85401C25.2131 10.9878 24.9952 13.1995 24.1627 15.2095C23.3301 17.2195 21.9202 18.9375 20.1113 20.1462C18.5803 21.1691 16.8218 21.7884 14.9986 21.9546C14.4486 22.0047 14 21.5523 14 21L14 12C14 11.4477 13.5523 11 13 11L4 11Z" fill="white"/>
<path d="M0.985281 13.0147C0.432996 13.0147 -0.0190531 13.4633 0.0269009 14.0137C0.262089 16.8304 1.48622 19.4862 3.5 21.5C5.51378 23.5138 8.1696 24.7379 10.9863 24.9731C11.5367 25.0191 11.9853 24.567 11.9853 24.0147V14.0147C11.9853 13.4624 11.5376 13.0147 10.9853 13.0147L0.985281 13.0147Z" fill="#98DEF3"/>
</svg>
