<svg width="25" height="24" viewBox="0 0 25 24" fill="none" xmlns="http://www.w3.org/2000/svg">
<path d="M10.8926 0C16.908 0.000187218 21.7841 4.96214 21.7842 11.083C21.7842 13.6778 20.9045 16.0616 19.4365 17.9502L24.3574 22.3477L23.2305 24L18.085 19.4023C16.1662 21.1213 13.65 22.1659 10.8926 22.166C4.87696 22.166 0 17.204 0 11.083C5.31851e-05 4.96202 4.87699 0 10.8926 0ZM10.8926 1.77344C5.83949 1.77344 1.74322 5.94139 1.74316 11.083C1.74316 16.2247 5.83946 20.3926 10.8926 20.3926C15.9455 20.3924 20.042 16.2246 20.042 11.083C20.0419 5.9415 15.9455 1.77362 10.8926 1.77344Z" fill="#C6C4C4"/>
</svg>
